<svg width="70" height="66" viewBox="0 0 70 66" fill="none" xmlns="http://www.w3.org/2000/svg">
<path d="M68.5543 56.6093C67.143 60.5946 61.5416 63.8998 57.0737 64.8651C54.017 65.5159 50.0244 66.0351 36.584 60.463C19.3923 53.3406 8.32123 35.871 7.45835 34.7376C6.63204 33.6042 0.511475 25.4873 0.511475 17.0925C0.511475 8.69778 4.77466 4.6101 6.4931 2.8551C7.90441 1.41453 10.2371 0.756409 12.4747 0.756409C13.1987 0.756409 13.8495 0.792972 14.4345 0.822222C16.1529 0.895347 17.0158 0.997723 18.1492 3.71066C19.5605 7.11097 22.9974 15.5057 23.4069 16.3686C23.8237 17.2315 24.2405 18.4015 23.6555 19.5349C23.1071 20.7049 22.6245 21.2241 21.7616 22.2186C20.8987 23.2131 20.0797 23.9736 19.2168 25.0412C18.4271 25.9699 17.535 26.9644 18.5295 28.6828C19.524 30.3647 22.9608 35.9734 28.0211 40.4779C34.5512 46.2913 39.8454 48.1487 41.7393 48.9385C43.1507 49.5235 44.8325 49.3845 45.8636 48.2877C47.1725 46.8763 48.7886 44.5363 50.4339 42.2329C51.6039 40.5803 53.081 40.3755 54.6313 40.9605C56.2108 41.509 64.569 45.6405 66.2874 46.4961C68.0059 47.359 69.1393 47.7685 69.5561 48.4924C69.9656 49.2163 69.9656 52.6167 68.5543 56.6093Z" fill="#FAFAFA"/>
</svg>
